<svg xmlns="http://www.w3.org/2000/svg" viewBox="0 0 800 400" width="800" height="400">
  <defs>
    <linearGradient id="sky" x1="0%" y1="0%" x2="0%" y2="100%">
      <stop offset="0%" style="stop-color:#bae6fd"/>
      <stop offset="55%" style="stop-color:#fbcfe8"/>
      <stop offset="100%" style="stop-color:#fde68a"/>
    </linearGradient>
    <filter id="soft" x="-20%" y="-20%" width="140%" height="140%">
      <feGaussianBlur in="SourceGraphic" stdDeviation="0.5" result="b"/>
      <feMerge><feMergeNode in="b"/><feMergeNode in="SourceGraphic"/></feMerge>
    </filter>
  </defs>
  <rect width="800" height="400" fill="url(#sky)"/>
  <ellipse cx="400" cy="330" rx="360" ry="36" fill="#3d2f4a" opacity="0.12"/>
  <g opacity="0.85">
    <rect x="32" y="195" width="48" height="125" rx="6" fill="#f9a8d4" stroke="#3d2f4a" stroke-width="3"/>
    <rect x="108" y="155" width="62" height="165" rx="6" fill="#93c5fd" stroke="#3d2f4a" stroke-width="3"/>
    <rect x="188" y="175" width="55" height="145" rx="6" fill="#86efac" stroke="#3d2f4a" stroke-width="3"/>
    <rect x="612" y="168" width="58" height="152" rx="6" fill="#fde68a" stroke="#3d2f4a" stroke-width="3"/>
    <rect x="692" y="138" width="68" height="182" rx="6" fill="#c4b5fd" stroke="#3d2f4a" stroke-width="3"/>
  </g>
  <g filter="url(#soft)">
    <ellipse cx="400" cy="258" rx="30" ry="22" fill="#ff6b9d" stroke="#3d2f4a" stroke-width="4"/>
    <circle cx="384" cy="246" r="9" fill="#ffffff" stroke="#3d2f4a" stroke-width="2"/>
    <circle cx="416" cy="246" r="9" fill="#ffffff" stroke="#3d2f4a" stroke-width="2"/>
    <circle cx="386" cy="248" r="5" fill="#3d2f4a"/>
    <circle cx="418" cy="248" r="5" fill="#3d2f4a"/>
    <circle cx="390" cy="246" r="2" fill="#ffffff"/>
    <circle cx="422" cy="246" r="2" fill="#ffffff"/>
    <path d="M 372 254 Q 400 272 428 254" fill="none" stroke="#3d2f4a" stroke-width="3.5" stroke-linecap="round"/>
    <ellipse cx="400" cy="228" rx="38" ry="30" fill="#ff6b9d" stroke="#3d2f4a" stroke-width="4"/>
    <polygon points="362,210 374,186 388,204" fill="#ff6b9d" stroke="#3d2f4a" stroke-width="3" stroke-linejoin="round"/>
    <polygon points="438,210 426,186 412,204" fill="#ff6b9d" stroke="#3d2f4a" stroke-width="3" stroke-linejoin="round"/>
    <ellipse cx="368" cy="262" rx="8" ry="6" fill="#e84a84" opacity="0.9"/>
    <ellipse cx="432" cy="262" rx="8" ry="6" fill="#e84a84" opacity="0.9"/>
  </g>
</svg>
